PathFileType	4	(X/Y/Z)	 s10c0401.trc
DataRate	CameraRate	NumFrames	NumMarkers	Units	OrigDataRate	OrigDataStartFrame	OrigNumFrames
200	200	5	50	mm	200	1	2000
Frame#	Time	racr			lacr			c7			jug			rlel			rdr			llel			ldr			s2			lic			ric			lasi			rasi			rpsi			lpsi			rgt			lgt			rth1			rth2			rth3			rth4			rlfc			rmfc			rsh1			rsh2			rsh3			rsh4			rlmal			rmmal			rcal			rtoe			rmt5			lth1			lth2			lth4			lth3			llfc			lmfc			llmal			lmmal			lcal			lmt5			lsh1			lsh2			lsh3			lsh4			ltoe			SBIKE			LBIKE			RBIKE			
		X1	Y1	Z1	X2	Y2	Z2	X3	Y3	Z3	X4	Y4	Z4	X5	Y5	Z5	X6	Y6	Z6	X7	Y7	Z7	X8	Y8	Z8	X9	Y9	Z9	X10	Y10	Z10	X11	Y11	Z11	X12	Y12	Z12	X13	Y13	Z13	X14	Y14	Z14	X15	Y15	Z15	X16	Y16	Z16	X17	Y17	Z17	X18	Y18	Z18	X19	Y19	Z19	X20	Y20	Z20	X21	Y21	Z21	X22	Y22	Z22	X23	Y23	Z23	X24	Y24	Z24	X25	Y25	Z25	X26	Y26	Z26	X27	Y27	Z27	X28	Y28	Z28	X29	Y29	Z29	X30	Y30	Z30	X31	Y31	Z31	X32	Y32	Z32	X33	Y33	Z33	X34	Y34	Z34	X35	Y35	Z35	X36	Y36	Z36	X37	Y37	Z37	X38	Y38	Z38	X39	Y39	Z39	X40	Y40	Z40	X41	Y41	Z41	X42	Y42	Z42	X43	Y43	Z43	X44	Y44	Z44	X45	Y45	Z45	X46	Y46	Z46	X47	Y47	Z47	X48	Y48	Z48	X49	Y49	Z49	X50	Y50	Z50	
1	0.0050	366.717123	1319.688674	-24.932581	386.521443	1314.180057	-362.830090	357.076388	1367.402575	-194.300402	371.109566	1225.554719	-187.597857	458.126908	1074.783667	38.972140	624.388877	914.715987	5.270408	470.857397	1061.946006	-443.630432	643.786454	914.973331	-385.729251	-109.509481	1088.496257	-218.107738	56.710482	1111.643804	-366.121296	58.859940	1119.277362	-67.606070	94.135055	1025.661096	-332.718399	63.617597	1029.964050	-80.519371	-75.572238	1140.502907	-160.760834	-65.619196	1147.189851	-270.554243	-47.624972	998.191218	-23.955168	-32.579710	973.011741	-407.467026	52.205799	900.565296	8.420588	140.551874	889.601227	5.654397	208.125888	836.644165	5.087428	153.728943	924.178228	-2.925156	316.881184	790.585063	-6.464737	322.131299	785.528327	-123.554583	268.068727	683.326931	11.131573	274.145187	595.970400	-6.491222	236.276930	519.471884	-20.448224	305.897808	595.024318	-29.049009	215.224122	420.192862	-45.623084	242.917530	442.586508	-122.117112	166.422598	396.388305	-96.861268	407.937124	384.839234	-79.255966	323.683612	355.131704	-22.411649	44.492807	870.173908	-426.932520	121.931167	830.821095	-419.315035	145.752292	857.104294	-408.930038	169.338144	755.495926	-416.952164	246.297764	670.162789	-401.414809	249.883768	663.562494	-279.906902	-32.569895	417.509244	-378.066231	-23.960176	418.290483	-295.952350	-97.522247	418.449338	-333.782564	22.773950	289.415073	-397.958699	148.050464	595.594552	-424.326770	111.115764	517.880685	-404.840275	35.912575	469.879284	-398.054775	132.918425	503.118481	-377.341716	106.365888	269.683149	-340.593553	-204.789044	835.489257	-224.813660	-78.460058	82.946295	-422.669277	-102.334730	81.298611	-24.045057	
2	0.0100	366.817933	1319.659006	-24.945031	386.553335	1314.200019	-362.761132	357.141942	1367.372338	-194.257942	371.145048	1225.533167	-187.570106	458.087786	1074.731221	39.069449	624.370542	914.691370	5.297714	470.932271	1061.995149	-443.601569	643.792498	914.960039	-385.701931	-109.482613	1088.525825	-218.071086	56.691539	1111.662175	-366.092087	58.903616	1119.298749	-67.577952	94.086472	1025.684638	-332.711099	63.661603	1029.993806	-80.488008	-75.481967	1140.542366	-160.759791	-65.584151	1147.225696	-270.518859	-47.658941	998.273667	-23.912441	-32.684980	973.086435	-407.480953	52.214773	900.816941	8.427120	140.520404	890.025959	5.658908	208.258172	837.216112	5.134058	153.650557	924.679877	-2.954083	317.107552	791.258342	-6.470448	322.350614	786.157452	-123.527744	268.263392	683.980336	11.148243	274.283636	596.634912	-6.505170	236.380361	520.055623	-20.413338	306.117016	595.611260	-28.986809	215.254121	420.858308	-45.618927	243.036938	443.315981	-122.142930	166.482834	397.354381	-96.791519	407.931108	385.276199	-79.311051	323.669112	355.690577	-22.425359	44.268298	870.129956	-426.960770	121.669927	830.698904	-419.309598	145.519944	856.976145	-408.974326	169.026956	755.363793	-416.970864	245.907391	670.006434	-401.430738	249.463298	663.421503	-279.989222	-32.574549	416.983358	-378.060038	-23.957383	417.713636	-295.964721	-97.512683	417.855067	-333.766227	22.831091	288.875324	-397.960991	147.745753	595.325298	-424.346949	110.901274	517.535350	-404.850991	35.773404	469.435121	-398.082785	132.646538	502.764525	-377.222774	106.494080	269.280760	-340.584629	-204.786549	835.484968	-224.806114	-78.438069	82.975683	-422.695765	-102.328071	81.290159	-24.054545	
3	0.0150	366.903172	1319.622591	-24.951067	386.609333	1314.205462	-362.694369	357.189681	1367.346692	-194.226897	371.176784	1225.527791	-187.558030	458.070460	1074.678577	39.166277	624.381618	914.695878	5.380381	470.997695	1062.029666	-443.580762	643.796930	914.951800	-385.674903	-109.483372	1088.580489	-218.017459	56.695641	1111.708981	-366.063732	58.939229	1119.325056	-67.532915	94.012655	1025.719834	-332.691512	63.692613	1030.010825	-80.444040	-75.427816	1140.561700	-160.753832	-65.532665	1147.258642	-270.491262	-47.712984	998.370771	-23.863637	-32.776322	973.155274	-407.488284	52.176151	901.068451	8.448062	140.530569	890.352608	5.647746	208.307300	837.676655	5.173057	153.595905	925.077489	-2.990131	317.291804	791.848213	-6.417160	322.603185	786.801328	-123.513161	268.483547	684.618855	11.142222	274.397300	597.190964	-6.480217	236.444920	520.762371	-20.429068	306.239133	596.199046	-29.043124	215.252837	421.621891	-45.603549	243.058837	443.924343	-122.139100	166.482580	397.997489	-96.882652	407.930552	385.703317	-79.301951	323.627273	356.254429	-22.427976	44.040463	870.132292	-426.986783	121.433143	830.609798	-419.343733	145.313948	856.869174	-408.984430	168.696489	755.263799	-417.012377	245.522124	669.887812	-401.495544	249.075956	663.262310	-280.042219	-32.587551	416.430318	-378.018696	-23.971273	417.205815	-295.939817	-97.487882	417.229164	-333.740585	22.918071	288.302778	-397.956542	147.420152	595.098889	-424.366536	110.714782	517.261307	-404.903061	35.647759	469.021701	-398.053273	132.482638	502.470413	-377.273220	106.548281	268.759989	-340.534141	-204.792976	835.485491	-224.789746	-78.440511	83.003254	-422.703418	-102.316796	81.298265	-24.039257	
4	0.0200	366.979146	1319.563584	-24.933083	386.640873	1314.203751	-362.634268	357.364731	1367.427829	-194.344863	371.207936	1225.510640	-187.520593	458.061053	1074.610443	39.279923	624.376650	914.705718	5.460475	471.052182	1062.056739	-443.554639	643.791036	914.969052	-385.667548	-109.474150	1088.624451	-217.971083	56.671324	1111.744217	-366.047078	58.979388	1119.705363	-67.297677	93.970897	1025.762832	-332.693878	63.760871	1030.086934	-80.122882	-75.369970	1140.589770	-160.716113	-65.534271	1147.308543	-270.427902	-47.757551	998.466774	-23.830422	-32.880751	973.242622	-407.496305	52.183044	901.303785	8.454494	140.545352	890.694068	5.660419	208.513234	838.189977	5.203731	153.557245	925.414809	-3.021754	317.687261	792.629652	-5.485931	322.836726	787.387230	-123.518999	268.690983	685.197268	11.140572	274.636561	597.948169	-6.872732	236.611331	521.358339	-20.436418	306.401205	596.773158	-29.007159	215.125112	422.297059	-45.538324	243.191803	444.268455	-122.286336	166.462062	398.608045	-96.832720	407.923902	386.165392	-79.308268	323.578660	356.733477	-22.431602	43.831350	870.105833	-426.988611	121.212375	830.532541	-419.359860	145.115298	856.977402	-409.222640	168.953721	755.545752	-417.099946	245.151124	669.705887	-401.533582	248.528810	663.193416	-279.999935	-32.576357	415.910447	-378.028783	-23.954227	416.721695	-295.932509	-97.467322	416.723675	-333.758929	23.005325	287.815455	-397.942916	147.368069	595.073490	-424.304290	109.808771	515.987413	-405.016608	35.406823	468.828178	-397.931391	132.526633	502.323884	-377.801618	106.615037	268.260850	-340.545725	-204.795203	835.482487	-224.802617	-78.430647	82.977313	-422.695054	-102.321636	81.297534	-24.047830	
5	0.0250	367.069777	1319.520562	-24.928529	386.699100	1314.098856	-362.393706	357.414478	1367.406359	-194.302860	371.157203	1225.393682	-187.233842	458.068769	1074.661332	39.462581	624.041576	913.371059	5.336902	470.956711	1061.393071	-443.230275	643.693525	914.817148	-385.479554	-109.671736	1087.670197	-217.694453	56.886992	1110.982887	-366.433916	59.014649	1119.733532	-67.237106	93.369036	1024.899061	-332.456815	63.796717	1030.119030	-80.058926	-75.343314	1140.636819	-160.642980	-65.449709	1147.540664	-270.256644	-47.640900	998.804938	-23.453734	-33.085115	972.809526	-407.526527	52.371261	901.691768	8.584394	140.680894	891.181709	5.752973	208.606595	838.614455	5.208863	153.827867	926.056133	-2.663459	317.862632	793.168496	-5.474398	323.018173	787.941836	-123.299110	269.048344	685.780978	11.286025	274.901620	598.438432	-6.721533	236.817899	521.981424	-20.228179	306.404472	597.324428	-28.774812	215.158975	422.211938	-45.846443	243.138247	445.123584	-122.105901	166.355963	399.708261	-96.126433	407.845987	386.527796	-79.388220	323.615635	357.392545	-22.256037	43.733524	869.543840	-426.925511	120.724393	829.678892	-419.195478	144.572972	856.001011	-408.954189	168.639960	754.659665	-417.466535	244.580717	668.642292	-401.307508	248.238426	663.031020	-279.901574	-32.790380	414.839498	-378.091746	-24.280258	415.696020	-295.989849	-97.696131	415.570649	-333.725492	22.812994	286.532169	-398.018298	147.266785	594.008288	-424.578909	109.588475	515.570881	-404.818062	35.265486	467.573680	-397.896359	132.446238	501.905574	-377.616858	106.350160	266.844427	-340.179405	-205.109419	834.675939	-224.531420	-78.599286	81.706335	-423.671223	-102.753431	80.558814	-24.377250	
